# xmcd
#
# Track frame offsets: 
#        150
#        14692
#        25977
#        39827
#        53272
#        67095
#        82263
#        95327
#        109985
#        124009
#
# Disc length: 1802 seconds
#
# Revision: 0
# Processed by: cddbd v1.5.2PL0 Copyright (c) Steve Scherf et al.
# Submitted via: ExactAudioCopy v0.95b4
#
DISCID=7f07080a
DTITLE=Various Artist - Great Labels Of The Doo-Wop Era - Red Robin
DYEAR=2008
DGENRE=Rock and Roll
TTITLE0=Mello-Moods - Where Are You
TTITLE1=Rainbows - Mary Lee
TTITLE2=Scarletts - Dear One
TTITLE3=Scarlets - True Love
TTITLE4=Sequins - Don't Fall In Love
TTITLE5=Velvets - I
TTITLE6=Velvets - I Cried
TTITLE7=Vocaleers - Be True
TTITLE8=Vocaleers - Is It A Dream
TTITLE9=Vocaleers - I Walk Alone
EXTD=
EXTT0=
EXTT1=
EXTT2=
EXTT3=
EXTT4=
EXTT5=
EXTT6=
EXTT7=
EXTT8=
EXTT9=
PLAYORDER=
